<svg xmlns="http://www.w3.org/2000/svg" xmlns:xlink="http://www.w3.org/1999/xlink" viewBox="0 0 500 539.06"><defs><style>.cls-1{fill:url(#linear-gradient);}.cls-2{fill:#327abc;}.cls-3{fill:#84d8fb;}.cls-4{fill:#47a8ed;}.cls-5{fill:#fff;}</style><linearGradient id="linear-gradient" y1="317.37" x2="500" y2="317.37" gradientUnits="userSpaceOnUse"><stop offset="0" stop-color="#47a8ed"/><stop offset="0.01" stop-color="#46a6eb"/><stop offset="0.19" stop-color="#3d93d6"/><stop offset="0.4" stop-color="#3785c7"/><stop offset="0.64" stop-color="#337dbf"/><stop offset="1" stop-color="#327abc"/></linearGradient></defs><title>Asset 2</title><g id="Layer_2" data-name="Layer 2"><g id="Layer_1-2" data-name="Layer 1"><path class="cls-1" d="M500,209V425.74A113.31,113.31,0,0,1,386.68,539.06H113.32A113.31,113.31,0,0,1,0,425.74V209A113.31,113.31,0,0,1,113.32,95.68H386.68A113.31,113.31,0,0,1,500,209Z"/><rect class="cls-2" x="101.74" y="7" width="94.98" height="185.36" rx="47.49"/><rect class="cls-2" x="319.28" y="7" width="94.98" height="185.36" rx="47.49"/><rect class="cls-3" x="93.74" width="94.98" height="185.36" rx="47.49"/><rect class="cls-3" x="311.28" width="94.98" height="185.36" rx="47.49"/><path class="cls-4" d="M500,220.47V425.74A113.31,113.31,0,0,1,386.68,539.06H113.32a112.73,112.73,0,0,1-64.28-20c0-.58,0-1.16,0-1.74,0-177.41,146-321.23,326.16-321.23A329.23,329.23,0,0,1,500,220.47Z"/><path class="cls-3" d="M387,322.35c-.54-34.14-57.37-23.86-128-12.14s-132.49,31.7-127.71,54.59c7.52,36,61.64,18.48,132.24,6.76S387.48,355.38,387,322.35Z"/><path class="cls-3" d="M342.68,269.36c0,61.76-7.74,222.13-41.44,222.13-35.24,0-24-158.83-24-220.6s15.09-73.53,33.71-73.53S342.68,207.6,342.68,269.36Z"/><path class="cls-3" d="M222.17,272.43c8.6,51.07,27.41,190.86-8.46,190.86-28.9,0-41-128.16-49.63-179.23s1.65-62.81,16.3-65.27S213.57,221.35,222.17,272.43Z"/><path class="cls-5" d="M378,313.35c-.54-34.14-57.37-23.86-128-12.14s-132.49,31.7-127.71,54.59c7.52,36,61.64,18.48,132.24,6.76S378.48,346.38,378,313.35Z"/><path class="cls-5" d="M333.68,260.36c0,61.76-7.74,222.13-41.44,222.13-35.24,0-24-158.83-24-220.6s15.09-73.53,33.71-73.53S333.68,198.6,333.68,260.36Z"/><path class="cls-5" d="M213.17,263.43c8.6,51.07,27.41,190.86-8.46,190.86-28.9,0-41-128.16-49.63-179.23s1.65-62.81,16.3-65.27S204.57,212.35,213.17,263.43Z"/></g></g></svg>